# xmcd
#
# Track frame offsets: 
#        150
#        15107
#        26190
#        42163
#        56997
#        70513
#        92435
#        110785
#        130678
#        146908
#        160257
#        179785
#        194675
#        208158
#        236643
#        252000
#        268092
#        281974
#        295787
#        313427
#
# Disc length: 4399 seconds
#
# Revision: 2
# Processed by: cddbd v1.5.2PL0 Copyright (c) Steve Scherf et al.
# Submitted via: ExactAudioCopy v1.0b3
#
DISCID=3d112d14
DTITLE=Various Artist - 100 Hits - Disco Fever [CD 1)
DYEAR=2014
DGENRE=Disco
TTITLE0=MFSB - TSOP (The Sound of Philadelphia)
TTITLE1=The Intruders - (Win, Place or Show) She's a Winner
TTITLE2=The Jacksons - Blame It on the Boogie
TTITLE3=Baccara - Yes Sir, I Can Boogie
TTITLE4=Barbara Mason - Give Me Your Love
TTITLE5=Earth, Wind and Fire feat. The Emotions - Boogie Wonderland
TTITLE6=The Isley Brothers - It's a Disco Night (Rock Don't Stop)
TTITLE7=Odyssey - Going Back to My Roots
TTITLE8=Heatwave - Boogie Nights
TTITLE9=O'Jays - Love Train
TTITLE10=Archie Bell and The Drells - The Soul City Walk
TTITLE11=The Trammps - Zing Went the Strings of My Heart
TTITLE12=Sly and The Family Stone - Dance to the Music
TTITLE13=Benny Golson - I'm Always Dancin' to the Music
TTITLE14=The Average White Band - Let's Go Round Again
TTITLE15=Harold Melvin and The Blue Notes - The Love I Lost
TTITLE16=Billy Ocean - Love Really Hurts Without You
TTITLE17=The Drifters - There Goes My First Love
TTITLE18=G.Q. - Disco Nights (Rock Freak)
TTITLE19=Herbie Hancock - I Thought It Was You
EXTD=(p) 2014 Demon Music Group
EXTT0=
EXTT1=
EXTT2=
EXTT3=
EXTT4=
EXTT5=
EXTT6=
EXTT7=
EXTT8=
EXTT9=
EXTT10=
EXTT11=
EXTT12=
EXTT13=
EXTT14=
EXTT15=
EXTT16=
EXTT17=
EXTT18=
EXTT19=
PLAYORDER=
